<svg width="1440" height="740" viewBox="0 0 1440 740" fill="none" xmlns="http://www.w3.org/2000/svg">
<rect width="1440" height="740" fill="black"/>
<path d="M719.426 434.784C721.889 434.501 724.738 435.215 726.733 436.629L727.12 436.921C729.268 438.649 730.091 440.631 730.039 442.508C729.986 444.402 729.039 446.265 727.501 447.725C724.522 450.552 719.441 451.764 714.854 448.717L714.412 448.409C711.23 446.083 710.661 442.92 711.753 440.229C712.858 437.505 715.692 435.213 719.426 434.784ZM729.752 324.296V349.111L730.554 348.505C736.659 343.886 742.382 338.679 747.89 333.446L747.977 333.363L748.017 333.251C748.936 330.659 748.592 328.095 747.695 325.691C746.914 323.597 745.701 321.593 744.507 319.763H793.753L749.341 371.149L749.087 371.442L749.308 371.761L800.045 445.012H745.561C747.343 442.365 749.107 438.969 749.225 435.814V435.813C749.284 434.18 748.66 432.298 747.71 430.348C746.754 428.385 745.438 426.292 744.045 424.225C742.671 422.185 741.15 420.064 739.882 418.197C738.795 416.597 737.855 415.126 737.206 413.857H747.429C747.578 413.857 747.755 413.806 747.89 413.763C748.047 413.713 748.234 413.643 748.437 413.562C748.844 413.398 749.34 413.178 749.831 412.942C750.323 412.707 750.817 412.454 751.224 412.227C751.427 412.113 751.612 412.003 751.766 411.902C751.911 411.808 752.056 411.703 752.158 411.6L752.161 411.596C753.946 409.75 754.156 407.175 753.187 405.218C752.205 403.236 750.026 401.906 747.142 402.53L746.968 402.568L746.856 402.707C746.438 403.232 746.314 403.759 746.378 404.275C746.437 404.753 746.656 405.195 746.831 405.551C747.021 405.937 747.171 406.24 747.224 406.545C747.271 406.816 747.242 407.092 747.022 407.421C746.964 407.509 746.786 407.651 746.431 407.81C746.095 407.959 745.672 408.094 745.215 408.21C744.302 408.441 743.32 408.58 742.791 408.625H742.79C735.614 409.241 727.906 409.01 720.137 408.73C712.864 408.469 705.536 408.166 698.59 408.489L697.214 408.562C696.58 408.589 695.905 408.408 695.3 408.102C694.693 407.794 694.193 407.379 693.896 406.982C693.576 406.556 693.59 406.302 693.642 406.203C693.699 406.095 693.961 405.847 694.896 405.819L695.354 405.806C695.357 405.973 695.378 406.157 695.411 406.352L695.481 406.768H744.881C745 406.764 745.09 406.719 745.108 406.71C745.144 406.692 745.176 406.673 745.199 406.657C745.247 406.626 745.298 406.588 745.345 406.549C745.441 406.47 745.553 406.367 745.66 406.253C745.765 406.141 745.878 406.006 745.966 405.865C746.038 405.75 746.161 405.527 746.133 405.271L746.094 404.916L745.744 404.838L745.435 404.773C743.818 404.458 741.226 404.251 738.787 403.983C737.471 403.839 736.189 403.677 735.089 403.471C733.975 403.262 733.101 403.017 732.569 402.729C732.212 402.536 731.873 402.148 731.527 401.577C731.185 401.012 730.874 400.331 730.541 399.608C730.214 398.899 729.865 398.15 729.461 397.502C729.058 396.857 728.571 396.262 727.94 395.9L727.191 395.471V402.728C726.188 402.442 725.153 402.394 724.148 402.407C723.042 402.422 722.019 402.506 721.004 402.479L719.992 302.706L718.998 302.639C718.307 307.349 716.931 311.948 715.639 316.612C714.431 320.971 713.298 325.378 712.911 329.91L712.844 330.818C712.168 341.547 712.461 352.662 712.713 363.743C712.965 374.834 713.175 385.893 712.344 396.555C712.286 397.304 712.162 398.428 711.928 399.488C711.81 400.019 711.667 400.523 711.496 400.951C711.344 401.332 711.18 401.627 711.012 401.828L710.939 401.908C710.809 402.042 710.558 402.202 710.16 402.371C709.772 402.536 709.284 402.694 708.716 402.845C707.58 403.146 706.17 403.407 704.698 403.642C701.793 404.104 698.595 404.465 697.039 404.822C696.894 404.855 696.75 404.854 696.591 404.843C696.53 404.838 696.411 404.827 696.34 404.823C696.257 404.818 696.147 404.816 696.034 404.833C695.916 404.851 695.769 404.896 695.638 405.009C695.504 405.124 695.43 405.271 695.392 405.414C695.386 405.434 695.382 405.454 695.378 405.475L695.382 405.332C695.403 404.489 695.24 403.796 694.888 403.277C694.528 402.747 694.005 402.448 693.417 402.342C692.281 402.137 690.902 402.643 689.712 403.487L689.711 403.488C688.549 404.316 687.912 405.398 687.714 406.56C687.517 407.711 687.756 408.906 688.28 409.976C689.321 412.097 691.56 413.857 694.112 413.857H704.021C703.06 414.895 702 415.866 700.906 416.833C699.537 418.043 698.109 419.255 696.821 420.567V420.568C696.405 420.994 695.22 422.208 694.122 423.395C693.574 423.987 693.042 424.578 692.638 425.062C692.436 425.303 692.261 425.524 692.13 425.709C692.064 425.801 692.004 425.891 691.957 425.975C691.915 426.048 691.861 426.156 691.837 426.272V426.273C691.678 427.04 691.639 428.468 691.655 429.855C691.671 431.258 691.745 432.689 691.828 433.497V433.498C692.274 437.912 694.344 441.56 696.941 445.012H640.175C644.436 440.493 648.157 435.06 648.748 428.79V428.789C649.982 415.642 649.398 401.768 648.864 387.91C648.33 374.038 647.845 360.178 649.259 346.998L649.26 346.99L649.261 346.981C650.014 336.891 648.339 327.576 641.189 319.763H697.187C696.766 320.632 696.228 321.456 695.66 322.307C694.956 323.362 694.205 324.464 693.667 325.688C693.443 326.193 692.985 327.374 692.585 328.519C692.385 329.092 692.196 329.664 692.057 330.145C691.987 330.384 691.928 330.606 691.887 330.797C691.847 330.978 691.815 331.164 691.815 331.316V381.092L692.55 380.701C693.457 380.219 694.387 379.639 695.195 379.006V379.005C696.125 378.275 699.748 375.275 703.17 372.35C704.882 370.886 706.549 369.437 707.808 368.296C708.436 367.726 708.967 367.23 709.353 366.845C709.545 366.653 709.706 366.482 709.827 366.342C709.887 366.272 709.942 366.203 709.987 366.139C710.026 366.083 710.083 365.996 710.116 365.895L710.117 365.894C710.288 365.367 710.329 364.724 710.312 364.056C710.296 363.38 710.218 362.635 710.126 361.892C709.938 360.375 709.696 358.89 709.715 357.784V357.783C709.894 347.057 710.637 336.123 710.3 325.284L720.016 290.815L729.752 324.296ZM716.217 429.338C718.364 428.574 721.473 428.263 723.798 428.869C724.957 429.172 725.859 429.686 726.379 430.417C726.81 431.023 727.02 431.838 726.826 432.945C724.647 431.845 722.586 431.423 720.514 431.501C718.48 431.578 716.46 432.136 714.334 432.963C714.317 432.59 714.294 432.252 714.278 431.959C714.253 431.467 714.254 431.108 714.325 430.81C714.391 430.534 714.518 430.301 714.781 430.074C715.059 429.835 715.502 429.591 716.216 429.339L716.217 429.338ZM715.911 424.273C717.867 423.367 720.97 422.955 723.389 423.48C724.595 423.743 725.566 424.224 726.157 424.926C726.633 425.491 726.899 426.244 726.792 427.259C722.733 425.288 718.363 425.922 714.324 427.319C714.306 426.993 714.286 426.705 714.274 426.469C714.254 426.054 714.263 425.78 714.322 425.56C714.41 425.234 714.64 424.92 715.501 424.474L715.911 424.273ZM717.89 418.22C720.016 417.89 722.561 417.831 724.396 418.473C725.306 418.791 725.996 419.265 726.399 419.917C726.726 420.445 726.895 421.138 726.791 422.061C724.621 420.999 722.565 420.528 720.499 420.569C718.44 420.61 716.399 421.157 714.256 422.086C714.099 420.762 714.225 419.998 714.615 419.493C715.074 418.899 716.014 418.511 717.89 418.22ZM716.807 412.873C719.201 412.084 722.123 411.814 724.207 412.478C725.239 412.806 726.023 413.349 726.469 414.124C726.84 414.77 727.009 415.634 726.829 416.786C723 414.388 718.209 414.806 714.338 416.783C714.318 416.209 714.281 415.736 714.256 415.351C714.218 414.766 714.219 414.446 714.293 414.215C714.352 414.032 714.473 413.86 714.844 413.647C715.235 413.423 715.843 413.19 716.806 412.874L716.807 412.873ZM724.59 365.939L723.611 366.028C723.095 371.27 723.023 376.535 723.048 381.79C723.072 387.054 723.192 392.295 723.063 397.529V397.536C723.057 398.185 723.291 398.858 723.733 399.361C724.185 399.875 724.856 400.209 725.676 400.144L726.125 400.108L726.136 399.658C726.383 389.598 725.895 379.599 725.62 369.612L725.618 369.55L725.601 369.489L724.59 365.939Z" fill="white" stroke="black"/>
</svg>
